<?xml version='1.0' encoding='utf-8'?>
<svg xmlns="http://www.w3.org/2000/svg" width="3e3" height="3e3" version="1.1" viewBox="0 0 793.75 793.75"> <g transform="translate(0 496.75)"> <path transform="matrix(.26458 0 0 .26458 0 -496.75)" d="m1500 37.031a1463 1463 0 0 0-1463 1463 1463 1463 0 0 0 1463 1463 1463 1463 0 0 0 1463-1463 1463 1463 0 0 0-1463-1463z" fill="#b0bbc5" stroke-width="3.0303"/> <path transform="matrix(.26458 0 0 .26458 0 -496.75)" d="m1500 37.031a1463 1463 0 0 0-1462.6 1456c-0.02254 5.5346-0.02763 11.077-0.0059 16.619a1463 1463 0 0 0 1462.6 1453.3 1463 1463 0 0 0 1462.6-1456.3c0.014-5.6438 0-11.286-0.027-16.914a1463 1463 0 0 0-1462.6-1452.7zm48.168 1341.8c82.194 0.01 119.6 2.2376 232.13 13.836 87.885 9.0576 95.925 10.736 104.65 21.828 8.4247 10.71 6.618 22.59-8.1699 53.728-12.468 26.253-11.653 32.657 4.3574 34.26 22.373 2.2398 19.214 17.771-9.7031 47.705-14.931 15.456-21.555 19.97-35.074 23.908-25.926 7.553-80.192 13.513-153.03 16.807-144.09 6.515-364.4-2.5705-483.33-19.932-17.5-2.5544-53.636-10.085-80.303-16.734-66.195-16.506-87.208-17.241-218.18-7.6446-198.6 14.552-376.3 21.708-478.79 19.283-68.807-1.628-90.23-4.9456-96.541-14.951-18.555-29.416 166.13-77.421 429.88-111.74 70.496-9.1726 77.794-9.5366 237.88-11.891 178.03-2.618 176.51-2.4957 276.15-22.328 98.92-19.689 167.64-26.148 278.08-26.137z" fill="#a0aeb9" stroke-width="3.0303"/> <path transform="matrix(.26458 0 0 .26458 0 -496.75)" d="m1500 37.031a1463 1463 0 0 0-1447.8 1264.8c17.702 2.1739 95.408 2.3373 420.51 4.3321 392.99 2.4114 1741.5 1.1329 2195-2.0801 221.46-1.5692 268.62-1.9672 279.76-5.0898a1463 1463 0 0 0-1447.5-1261.9zm-233.85 1636.6c-256.06 0.01-496.12 0.5623-681.3 1.8145-282.5 1.9102-519.43 4.2797-526.51 5.2656-3.4309 0.4775-6.1098 0.7044-8.084 1.4844a1463 1463 0 0 0 1449.8 1280.8 1463 1463 0 0 0 1449.9-1279c-51.151-5.6792-935.68-10.349-1683.8-10.33z" fill="#8997a2" stroke-width="3.0303"/> <path transform="matrix(.26458 0 0 .26458 0 -496.75)" d="m1500 37.031a1463 1463 0 0 0-1246.2 700.17c22.065 1.426 113.29 2.5646 246.98 3.0195 138.75 0.47221 701.93 0.82112 1251.5 0.77539 713.63-0.0596 961.59-0.78386 995.03-3.0996a1463 1463 0 0 0-1247.3-700.86zm771.21 1016c-156.67 0.01-420.53 1.9087-586.37 4.2207-229.33 3.1972-454.23 3.6948-939.39 2.082-487.75-1.6214-621.29-1.4409-640.49 1.2246a1463 1463 0 0 0-52.061 236.73c20.35 4.6934 94.728 4.6658 349.26 5.8769 585.54 2.7864 1238.9 2.7734 1908.3-0.039 519.52-2.1827 619.8-2.9776 636.73-6.3105a1463 1463 0 0 0-52.381-232.82c-37.841-5.6259-335.37-10.987-623.61-10.969zm-931.82 625.05c-814.85 0.027-1243.4 2.3275-1288.8 6.9199a1463 1463 0 0 0 87.645 349.08c6.2283 0.4657 34.305-0.1613 66.307-1.5234 57.935-2.4661 1465.6 1.8399 1711.1 5.2343l95.984 1.3282 28.258 13.238c15.542 7.2815 42.963 22.346 60.936 33.477 57.37 35.529 84.687 46.958 127.93 53.52 8.3333 1.2646 31.301 2.4699 51.039 2.6778 73.001 0.769 128.7-17.078 244.42-78.311l50-26.457 125.76-0.5176c115.08-0.4731 149.2-1.1133 161.61-5.75a1463 1463 0 0 0 87.885-344.15c-47.578-5.1459-710.43-8.7953-1610.1-8.7656zm-1007.7 553.57c-56.214 0.072-85.29 1.0673-94.785 2.9356a1463 1463 0 0 0 1263.1 728.36 1463 1463 0 0 0 1259.1-721.15c-2.9199-1.4802-10.79-1.5109-29.539-0.6328-102.57 4.8037-339.18 7.9816-703.06 9.4395-408.59 1.637-530.62 0.519-1065.9-9.7559-331.61-6.3656-525.83-9.3333-628.9-9.2012z" fill="#a2846a" stroke-width="3.0303"/> <path transform="matrix(.26458 0 0 .26458 0 -496.75)" d="m1500 37.031a1463 1463 0 0 0-905.9 314.48c-2.427 1.9288-4.8492 3.8651-7.2656 5.8106a1463 1463 0 0 0-95.777 84.141c-6.8586 6.5632-13.667 13.198-20.42 19.908a1463 1463 0 0 0-213.01 269.54c1.1778 0.33437 2.4284 0.6427 3.75 0.89063 6.0945 1.1433 144.85 1.4379 308.33 0.65625 163.49-0.78176 269.98-0.63179 236.65 0.33203-33.333 0.96385 186.89 1.752 489.39 1.752 302.5 0 501.59-0.70683 442.42-1.5723-59.167-0.86544 113.33-1.5945 383.33-1.6172 309.87-20.53 561.48-2.15 433.33 1.6738l-57.574 1.7188 48.75 0.65625c26.814 0.3609 81.701-0.24384 121.97-1.3438 52.211-1.4261 65.036-14.37 71.213-8.9024-4.5789-6.932-16.566-25.655-30.607-46.99a1463 1463 0 0 0-151.54-188.79c-5.4358-5.6681-10.91-11.29-16.422-16.865a1463 1463 0 0 0-91.615-85.352c-4.2208-3.6184-8.4539-7.2167-12.709-10.783a1463 1463 0 0 0-936.31-339.35zm1239.2 688.13c1.5112 2.2878 2.3238 3.4593 2.0059 2.8086-0.6074-1.2432-1.2628-2.1509-2.0059-2.8086zm-2325.4 2.209c24.167 2.2e-4 48.201 0.12173 66.27 0.36328 36.137 0.4831 5.7024 0.87763-67.631 0.87695-73.333-7.2e-4 -102.9-0.39652-65.703-0.8789 18.598-0.24121 42.898-0.36156 67.064-0.36133zm-0.14844 152.71c-131.67-0.0592-225.08 0.72217-207.58 1.7363l31.818 1.8438-32.699 0.59375-30.691 0.55469a1463 1463 0 0 0-12.482 25.84l36.479 3.291-19.697 1.3613c-10.833 0.74964 70.985 1.3794 181.82 1.3945 110.83 0.0166 181.74-0.82307 157.58-1.8652-24.167-1.0424 61.061-1.6322 189.39-1.3106 128.33 0.32153 208.79-0.24992 178.79-1.2695-30-1.0196 396.48-2.148 947.73-2.5078 544.32-0.35506 990.6-1.1491 1001.7-1.7754a1463 1463 0 0 0-10.348-23.123l-1196-0.69726c-658.73-0.3854-1147.9-1.4341-1087.1-2.3301 74.897-1.103 33.318-1.6638-128.79-1.7363zm1866.7 172.37c-125 0.012-220.45 1.0451-212.12 2.2968 8.3334 1.2532-48.258 1.831-125.76 1.2871-77.5-0.5438-135.45 0.1003-128.79 1.4336 6.6667 1.3335-47.197 2.0509-119.7 1.5938-72.5-0.4571-119.54 0.044-104.54 1.1152 15 1.0707-210.68 1.9473-501.52 1.9473-290.83 0-512.42-0.711-492.42-1.5801 20-0.869-81.862-1.5496-226.36-1.5156-144.5 0.036-260.4 0.9922-257.57 2.125 4.2078 1.6849 3.9348 2.0992-1.4961 2.2734-3.0167 0.097-5.0707 0.3594-6.8476 2.0313a1463 1463 0 0 0-16.439 63.434c0.88232-0.3249 2.0986-1.2578 3.6504-2.6621 9.5051-8.6021 18.452-6.3464 23.588 5.9453 6.0963 14.59 3.9792 18.549-12.09 22.596-16.938 4.2651-23.16 9.6928-30.875 35.713a1463 1463 0 0 0-18.064 106.51l45.857 0.416c26.489 0.2401 219.3 1.4103 428.47 2.5997 410.05 2.3315 1522.1 1.2913 2078-1.9434l341.81-1.9883a1463 1463 0 0 0-28.476-147.41c-0.629 3.9548-1.0641 13.221-1.6036 25.93-1.6757 39.477-7.4678 53.275-25.184 60.363-12.04 4.8176-33.363-0.1985-33.363-3.7812 0-0.9943 2.4564-19.289 9.3476-27.045 16.475-18.542 23.157-23.906 23.238-42.842 0.081-18.909 6.5032-33.681 13.902-37.641 3.1335-1.677 5.8634-2.511 6.4472-7.1289a1463 1463 0 0 0-15.377-48.828c-3.4203-0.9277-8.9859-1.3211-18.217-1.543l-21.766-0.5234 19.697-2.2188c11.366-1.2799-9.7834-1.8433-50-1.33-41.308 0.5271-64.143-0.098-56.06-1.5371 7.9829-1.4215-13.375-1.9559-51.516-1.2872-41.115 0.721-62.357 0.1293-57.576-1.6035 4.703-1.7048-28.046-2.322-86.363-1.6289-51.667 0.6142-87.803 0.058-80.303-1.2363 7.4999-1.2944-88.637-2.3434-213.64-2.332zm-1137.9 11.6c34.877 0 69.755 0.1155 96.213 0.3476 52.917 0.4643 9.6205 0.8457-96.213 0.8457-105.83 0-149.13-0.3814-96.211-0.8457 26.458-0.2321 61.334-0.3476 96.211-0.3476zm254.63 20.682c59.957 0.1285 137.02 4.302 244.31 2.6875 127.52-1.9189 285.68 19.623 291.27 25.221 4.0031 4.0031-53.241 37.314-106.88 42.926-44.705 4.6774-78.424 17.116-248 27.072-192.5 11.303-261.83 11.366-308.87 35.164-17.624 8.9158-50.571-0.7458-146.04-7.58-84.884-6.0766-117.63 0.2649-136.87 9.5781-21.026 10.178-88.96 28.118-198.9 36.168-50.099 3.6679-152.51-17.182-156.68-21.377-1.3841-1.3937 4.0117-11.943 10.262-16.961 6.25-5.0179 15.145-5.7109 12.07-6.3477-7.4246-1.5376 0.25901 4.4656-59.143 28.104-19.415 7.7259-58.849 12.613-68.617 15.615-27.868 8.5645-66.037-1.5769-74.109-7.3691-27.452-19.698 59.63-108.49 125.81-122.35 29.16-6.1057 63.422-8.8539 122.89 6.1856 80.648 20.396 89.764 18.098 128.93 1.5859 51.224-21.597 138.91-37.602 268.07-16.022 85.709 14.321 71.624 22.638 119.85 1.7598 30.927-13.389 53.162-21.2 88.373-27.795 26.485-4.9608 56.301-6.3408 92.275-6.2637zm929.95 13.049c10.139 0 33.756 13.022 59.535 15.143l42.248 3.4766 31.818 1.539c39.445 1.9072 58.178-0.2417 85.25 19.688 32.039 23.586 54.96 62.894 42.096 67.83-8.0149 3.0756-62.694 0.5015-106.4-12.894-53.164-16.295-48.877-7.473-80.988-4.0176-35.722 3.8441-47.04 6.566-156.82 33.113-99.277 24.006-155.29 29.039-198.38 33.904-31.261 3.5295-81.571-4.9564-102.54-8.4863-34.62-5.8295-69.283-28.649-69.283-41.223 0-10 29.789-19.691 55.213-10.625 70.921 25.29 81.736 21.567 182.83-15.498 31.436-11.526 72.233-23.622 88.066-27.312 54.037-12.595 61.68-8.3527 83.189-27.846 19.412-17.592 26.882-26.791 44.168-26.791zm464.24 7.7129c3.133-0.021 6.1152 0.3176 8.9121 1.0196 16.689 4.1887 54.797 52.726 49.15 61.863-0.987 1.597-16.296 10.893-22.783 9.8555-18.544-2.9653-15.183 0.729-45.572 28.766-18.95 17.483-40.368 26.557-53.297 32.619-15.211 7.1325-29.431 7.9091-47.373 8.6133-28.99 1.1378-64.477-19.511-64.477-29.389 0-6.301 22.635-14.934 43.992-17.369 29.467-3.3605 35.17-14.2 55.445-42.924 24.758-35.074 54.071-52.906 76.002-53.055zm-2437.4 12.703c22.366-0.1849 94.305 26.186 98.988 39.504 1.9324 5.495-12.961 26.713-14.977 28.728-5.1752 5.1752-34.393 19.14-91.502 24.281-30 2.7005-41.804-8.1409-44.812-7.2382-11.69 3.5074-20.071 0.3615 3.5293 3.4414 23.966 3.1275 37.864 19.589 34.121 23.332-2.8685 2.8685-70.062 34.024-108.69 39.088l-30.406-7.7774c-33.508 4.3926-88.746-11.427-100.54-14.482-3.107-0.8052-12.842-14.564-12.303-17.428 0.65181-3.459 22.576-17.626 35.021-20.381 34.402-7.6148 73.082-12.346 82.152-17.717 7.7978-4.6174 5.4302 1.5437 4.6836-7.8613-0.82426-10.384 6.8093-12.892 17.678-15.723 6.312-1.6441 29.531-11.174 52.031-13.83 65.934-7.7845 68.434-17.58 68.434-32.852 0-2.1072 2.4421-3.0517 6.584-3.0859zm988.62 562.95c-845.38 0.038-1267.1 2.3419-1291.4 7.0605a1463 1463 0 0 0 50.896 237.85c1.0147-1.95 0.73114-12.776-0.1582-39.688-0.82615-25-2.3611-49.713-3.4121-54.916-1.2631-6.2535-0.52938-10.584 2.1641-12.774 22.129-17.989 26.982-23.545 31.652-36.24 9.1622-24.907 9.866-24.18 14.908 15.359 3.6394 28.539-6.3698 89.083-22.873 138.34-4.0288 12.025-7.4214 24.543-8.5625 31.199a1463 1463 0 0 0 18.436 55.48c2.3599 3.8346 4.4742 6.378 5.9863 6.7734 4.6717 1.2217 5.0795 2.1686 1.9043 4.4101-2.8154 1.9877-1.741 2.3761 3.5332 1.2774 23.1-4.8122 270.66-5.4384 918.18-2.3242 397.5 1.9117 773.32 4.0379 835.15 4.7246l112.42 1.248 28.484 13.344c15.666 7.3395 43.189 22.452 61.162 33.582 57.37 35.529 84.687 46.958 127.93 53.52 8.3333 1.2646 31.301 2.4699 51.039 2.6778 73.001 0.769 128.7-17.078 244.42-78.311l50-26.457 125.76-0.5176c69.167-0.2843 134.22-1.324 144.55-2.3105l16.367-1.5606a1463 1463 0 0 0 34.143-93.535c0.7534-4.467 1.1226-8.242 1.0097-11.07-0.3164-7.9246 1.3203-14.695 4.3946-18.184 1.5269-1.7326 3.2719-4.8759 5.1582-9.0977a1463 1463 0 0 0 43.582-212.27c-35.34-4.031-789.27-7.6269-1606.8-7.5898zm338.72 37.557c52.579-0.2247 108.6 8.1064 138.53 21.811 16.954 7.7619 23.054 14.94 17.455 20.539-1.6861 1.6862-17.334 4.3041-34.773 5.8184-36.09 3.1337-77.644 13.18-120.13 29.043-88.876 33.184-127.23 68.461-101.93 93.76 9.1005 9.1004 9.4312 12.154 1.7559 16.262-15.326 8.2023-89.803 11.781-442.66 21.264-96.258 2.5868-95.99 2.5383-153.03 26.648-43.757 18.495-59.09 22.149-59.09 14.08 0-15.38 36.652-49.869 81.895-77.06 51.498-30.951 63.385-32.786 236.29-36.451 133.89-2.8381 166.82-5.6263 192.31-16.287 16.851-7.0469 22.27-12.776 31.752-33.572 20.355-44.641 79.332-73.823 168.92-83.582 13.535-1.4744 27.989-2.2086 42.711-2.2715zm-1052.6 14.635c27.106 0 32.739 0.9485 46.592 7.8515 17.957 8.9484 21.762 16.958 14.617 30.774-22.006 42.556-175.75 124.71-243.6 130.18-21.127 1.7014-22.617 1.3736-37.879-8.3437-23.09-14.701-43.153-14.354-78.008 1.3457-14.167 6.3812-39.31 16.388-55.875 22.238-22.227 7.8505-36.517 10.94-54.545 11.791-21.991 1.0383-38.064-1.7075-38.064-6.5039 0-0.9759 11.934-14.317 26.521-29.645 24.358-25.594 30.385-34.689 47.389-71.514 9.8201-21.268 31.936-24.622 111.54-16.926 35.037 3.3873 62.234 4.5511 73.477 3.1465 16.717-2.0887 18.937-3.3617 35-20.086 30.758-32.024 93.465-54.307 152.83-54.307zm247.82 0c7.8411 0 14.098 5.4772 20.623 18.057 5.4584 10.523 4.9323 45.247-0.85351 56.277l-4.7207 8.998h-29.816c-27.052 0-31.129 0.7713-43.957 8.3125-17.064 10.031-30.613 25.372-46.607 52.768-6.5882 11.284-15.168 24.317-19.066 28.961-8.961 10.676-13.926 10.625-24.809-0.2578-22.393-22.393-14.222-36.75 54.395-95.56 28.121-24.103 54.823-48.665 59.336-54.582 9.937-13.028 25.295-22.973 35.477-22.973zm2053.4 27.461c0.2578 0.072 0.4018 0.5419 0.4277 1.4219 0.2448 8.2996-36.93 112.35-43.117 120.68-3.8904 5.2396-13.381 19.754-21.092 32.254-14.415 23.37-32.668 43.749-32.668 36.475 0-2.2291 10.162-19.19 22.584-37.69 24.228-36.083 47.373-82.423 60.691-121.51 7.0898-20.81 11.781-32.017 13.174-31.629zm-830.84 2.5215c11.254 0.037 21.097 1.2448 28.637 3.7656 24.949 8.3413 20.568 12.142-44.394 38.516-110.54 44.877-132.3 61.473-130.85 99.789 0.6547 17.328 0.052 19.164-9.5332 29.064-19.271 19.905-65.268 39.745-113.25 48.848-28.937 5.4893-52.606 5.9151-55.643 1.002-3.7731-6.1051 26.257-30.179 61.275-49.123 52.198-28.238 63.906-40.093 69.162-70.025 4.6203-26.31 31.14-51.253 79.254-74.541 35.118-16.998 81.585-27.407 115.35-27.295zm552.57 18.559c15.973 0 42.424 3.5618 42.424 5.7207 0 1.0465-18.069 10.916-40.152 21.934s-48.332 26.162-58.332 33.652c-10 7.4906-23.923 16.52-30.94 20.066-23.627 11.942-25.209 6.7091-5.5449-18.34 26.77-34.1 69.24-63.027 92.545-63.033zm222.11 5.252c6.351 0.01 8.1954 6.1108 8.1954 21.055 0 14.905-0.5209 16.061-7.2286 16.061-13.518 0-39.022 10.249-49.057 19.713-6.5919 6.217-11.283 14.539-13.758 24.406-5.3395 21.289-27.722 42.41-64.049 60.44-36.578 18.154-58.342 20.166-93.94 8.6875-16.886-5.4449-18.737-10.215-3.9668-10.215 29.002 0 124.5-46.989 134.87-66.361 2.4522-4.5819 2.0113-7.1157-1.9179-11.045-4.3019-4.3019-8.798-4.7744-28.781-3.0313-15.614 1.362-23.684 0.9984-23.684-1.0664 0-4.5251 5.4249-6.978 67.09-30.334 30.601-11.59 60.546-23.146 66.545-25.68 4.0247-1.7 7.2004-2.6317 9.6855-2.6289zm-2467.2 237.45c3.8447 0 7.8037 0.1564 10.947 0.4844 6.2871 0.656 1.8854 1.2047-9.7812 1.2168-11.667 0.014-16.811-0.5239-11.432-1.1934 2.6898-0.3345 6.4209-0.5034 10.266-0.5078zm-52.26 0.027c2.197 0.011 4.2858 0.2067 5.7344 0.5859 2.8972 0.7585-0.18685 1.352-6.8535 1.3184-6.6667-0.034-9.039-0.6541-5.2695-1.3789 1.8847-0.3624 4.1917-0.5365 6.3887-0.5254zm512.23 3.0078c6.0417 0 11.964 0.1559 16.309 0.4609 8.6891 0.61 0.80015 1.1018-17.533 1.0957-18.333-0.01-25.443-0.5042-15.799-1.1074 4.8221-0.3018 10.982-0.4514 17.023-0.4492zm-654.26 0.053c1.3731 0 2.7454 0.2106 3.7871 0.6309 2.0833 0.8406 0.37956 1.5293-3.7871 1.5293-4.1667 0-5.8704-0.6887-3.7871-1.5293 1.0417-0.4203 2.414-0.6309 3.7871-0.6309zm1224.2 2.9805c6.8655 0 13.731 0.1475 18.939 0.4433 10.417 0.5918 1.8939 1.0762-18.939 1.0762s-29.356-0.4844-18.94-1.0762c5.2084-0.2958 12.074-0.4433 18.94-0.4433zm1384.8 0.027c1.9223 0 3.8444 0.1912 5.3027 0.5723 2.9167 0.7622 0.5306 1.3848-5.3027 1.3848-5.8334 0-8.2214-0.6226-5.3047-1.3848 1.4584-0.3811 3.3823-0.5723 5.3047-0.5723zm-227.27 3.0528c1.3731 0 2.7454 0.2105 3.7871 0.6308 2.0833 0.8407 0.3795 1.5293-3.7871 1.5293-4.1667 0-5.8705-0.6886-3.7872-1.5293 1.0417-0.4203 2.414-0.6308 3.7872-0.6308zm-2262.2 197.94c-56.214 0.072-85.29 1.0673-94.785 2.9356a1463 1463 0 0 0 1263.1 728.36 1463 1463 0 0 0 1259.1-721.15c-2.9199-1.4802-10.79-1.5109-29.539-0.6328-102.57 4.8037-339.18 7.9816-703.06 9.4395-408.59 1.637-530.62 0.519-1065.9-9.7559-331.61-6.3656-525.83-9.3333-628.9-9.2012z" fill="#828282" stroke-width="3.0303"/> <path transform="matrix(.26458 0 0 .26458 0 -496.75)" d="m1500 37.031a1463 1463 0 0 0-788.32 230.71c-1.6181 1.0505-3.2474 2.1215-4.8711 3.1816a1463 1463 0 0 0-214.9 169.8c-7.3184 6.9866-14.56 14.037-21.729 21.146a1463 1463 0 0 0-84.883 91.115c-2.3992 2.7913-4.7868 5.5902-7.1641 8.3965a1463 1463 0 0 0-124.78 176.51c12.674 0.73572 42.251 0.98548 76.502 0.53906 45.7-0.59569 186 0.10798 311.78 1.5644 125.78 1.4565 652.34 2.5327 1170.1 2.3906 684.52-0.18806 901.51-0.86982 936.21-3.2773a1463 1463 0 0 0-193.32-252.44c-3.6374-3.7832-7.2908-7.5462-10.961-11.285a1463 1463 0 0 0-97.707-91.025c-2.3754-2.021-4.7573-4.0322-7.1445-6.0371a1463 1463 0 0 0-938.86-341.28zm-889.28 846.86c-240.61-2e-3 -394.68 0.12732-404.11 0.38867l-32.301 0.89649a1463 1463 0 0 0-12.309 25.479l17.99 1.8574v-4e-3c10.171 1.0499 90.766 1.3916 179.1 0.75781s681.86-1.9825 1318.9-2.9961c632.57-1.0064 1150.3-2.192 1157.7-2.6484a1463 1463 0 0 0-10.014-22.375l-1291.5-0.95898c-355.64-0.26283-682.8-0.39497-923.42-0.39649zm1676.8 172.52c-193.22-0.1603-403.53 1.2455-566.26 4.2735-167.71 3.1204-360.03 3.9399-695.46 2.9609-755.54-2.2051-915.49-1.9313-922.54 1.6953a1463 1463 0 0 0-16.539 63.781c0.84521-0.4294 2.0432-1.3912 3.7109-2.9004 9.5051-8.6021 18.452-6.3464 23.588 5.9453 6.0963 14.59 3.9792 18.549-12.09 22.596-16.938 4.2651-23.16 9.6928-30.875 35.713a1463 1463 0 0 0-18.064 106.51l45.857 0.416c26.489 0.2401 219.3 1.4103 428.47 2.5997 410.05 2.3315 1522.1 1.2913 2078-1.9434l341.81-1.9883a1463 1463 0 0 0-28.17-146.05c-0.2217 2.4632 0.047 9.3035-0.4961 22.092-1.6757 39.477-7.9972 53.628-25.713 60.717-12.04 4.8176-43.971 2.8074-43.971-0.7754 0-0.9942 9.8803-17.346 16.772-25.102 16.475-18.542 22.096-31.154 22.178-50.09 0.081-18.902 11.454-31.736 18.846-35.691 2.4946-1.335 4.3692-1.6693 4.9649-4.2031a1463 1463 0 0 0-15.545-49.482c-14.139-1.039-74.016-3.5142-144.76-5.9434-94.391-3.2412-270.53-4.9686-463.75-5.1289zm83.74 36.264c6.4849-0.06 12.942 0.8316 18.914 3.3125l34.662 14.4 36.818-1.7656c39.218-4.6404 72.764 6.4066 99.836 26.336 32.039 23.586 39.744 73.69 26.879 78.627-8.0148 3.0756-73.226 2.5504-116.93-10.846-53.164-16.295-43.666-17.725-75.777-14.27-35.722 3.8441-44.524 4.9801-154.31 31.527-99.277 24.006-149.27 25.428-192.36 30.293-31.261 3.5296-89.208 8.03-110.17 4.5-34.62-5.8294-67.42-36.872-67.42-49.445 0-10 30.028-30.998 55.451-21.932 70.921 25.29 83.16 32.792 184.26-4.2735 31.436-11.526 69.862-23.726 85.695-27.416 54.038-12.595 58.236-10.568 79.746-30.06 19.411-17.592 30.665-20.076 47.951-20.076 7.6043 0 27.309-8.7328 46.764-8.9121zm-671.52 6.2402c117.62-0.054 218.2 12.33 223.45 17.578 4.0031 4.0032-39.499 47.636-93.137 53.248-44.705 4.6774-63.454-4.904-233.03 5.0527-192.5 11.303-274.83 26.195-321.87 49.992-17.624 8.9158-56.077 3.3055-151.54-11.455-84.884-13.124-129.66-10.118-148.89 9.9961-21.026 21.984-90.46 12.628-200.4 20.678-50.099 3.6678-119.11 2.218-123.27-1.9766-1.3841-1.3937-11.152-20.638-4.9024-25.656 6.25-5.0179 9.1133-3.4422 9.1133-6.5821 0-13.912-9.7762-5.3234-69.178 18.314-19.415 7.7259-47.042 25.002-56.811 28.004-27.868 8.5644-67.402-3.659-75.475-9.4512-27.452-19.698 59.374-95.633 125.55-109.49 29.16-6.1057 55.762-5.0063 115.23 10.033 80.648 20.396 88.303 10.856 127.46-5.6563 51.224-21.597 121.41-46.467 250.57 0.1426 85.709 30.93 96.089 21.417 144.32 0.5391 30.927-13.389 50.162-19.2 85.373-25.795 70.628-13.229 202.06-14.749 373.72-17.332 7.9698-0.1199 15.887-0.18 23.729-0.1836zm1096.3 9.2715c2.3254 0.01 4.5468 0.2684 6.6445 0.7949 16.689 4.1888 53.03 49.543 47.383 58.68-0.9869 1.597-15.589 8.7718-22.076 7.7344-18.544-2.9654-18.364-6.6968-48.754 21.34-18.95 17.483-37.186 34.336-50.115 40.398-15.211 7.1325-29.078 12.151-47.02 12.855-28.99 1.1379-65.537-17.036-65.537-26.914 0-6.301 19.453-24.125 40.81-26.561 29.467-3.3604 37.998 0.2964 58.274-28.428 25.642-36.326 57.912-59.967 80.391-59.9zm-2428.4 3.2148c20.062-0.2491 91.73 30.252 96.5 43.816 1.9324 5.495-15.082 40.502-17.098 42.518-5.1752 5.1752-13.535-1.3674-70.645 3.7735-30 2.7005-37.913 4.2341-40.922 5.1367-11.69 3.5075-2.0395 8.8459 21.561 11.926 23.966 3.1275 30.794 5.4481 27.051 9.1914-2.8685 2.8685-125.92 35.085-164.55 40.148l-23.334 2.8281c-33.508 4.3926-102.89-6.4778-114.68-9.5332-3.107-0.8052 4.8353-18.451 5.375-21.314 23.279-35.986 23.637-40.962 36.082-43.717 34.402-7.6148 46.565-16.942 55.635-22.312 7.7978-4.6174 34.422 1.5437 33.676-7.8613-0.82427-10.384-0.26104-11.124 10.607-13.955 6.312-1.6442 29.885-5.1619 52.385-7.8184 65.934-7.7844 87.172-14.751 87.172-30.023 0-1.8965 1.9007-2.762 5.1836-2.8028zm974.82 569.74c-845.38 0.038-1267.1 2.3419-1291.4 7.0605a1463 1463 0 0 0 7.207 59.383c0.31322 1.5593 0.6148 3.077 0.93945 4.6719a1463 1463 0 0 0 28.043 124.95c1.5223 6.3027 2.9422 12.093 4.2715 17.441a1463 1463 0 0 0 44.57 134.13l36.715-0.3828c111.67-1.1669 646.17-0.232 951.52 1.664 192.5 1.1954 468.77 2.421 613.92 2.7246l263.92 0.5528 17.895-11.592c22.804-14.772 44.504-33.153 93.652-79.328 67.458-63.378 109.33-92.652 153.64-107.42 53.1-17.694 108.8-11.996 155.45 15.902 35.353 21.142 66.569 56.125 116.42 130.47 10.449 15.584 23.802 33.651 29.674 40.15l10.676 11.818 103.44-0.014c56.889-0.01 120.9-0.9018 142.24-1.9902 21.53-1.098 31.655-0.588 38.392-5.668a1463 1463 0 0 0 85.648-336.93c-35.34-4.031-789.27-7.6269-1606.8-7.5898zm996.4 213.43c-4.7143 0-9.574 0.1132-14.586 0.3261-82.003 3.4833-140.26 31.77-166.39 80.795-19.372 36.346-14.48 67.768 14.816 95.172 21.652 20.253 60.385 37.915 92.482 42.172 77.436 10.271 167.36-27.206 195.17-81.336 18.466-35.946 10.597-81.5-18.273-105.79-25.616-21.554-57.651-31.374-103.22-31.336zm-1960.8 344.83c-70.712 0-129.41 0.5954-137.58 1.3614a1463 1463 0 0 0 23.316 40.65c5.0606 7.7417 10.62 16.117 16.395 24.713a1463 1463 0 0 0 1219.8 656.85 1463 1463 0 0 0 1194.5-619.9c8.3846-12.13 17.23-25.151 25.539-37.57a1463 1463 0 0 0 33.93-55.344c-3.7847-1.6846-26.472-1.8869-71.394-0.6621-356.25 9.7133-1115.3 10.117-1593.2 0.8477-517.32-10.034-576.3-10.942-711.36-10.945z" fill="#98846f" stroke-width="3.0303"/> <path transform="matrix(.26458 0 0 .26458 0 -496.75)" d="m1500 37.031a1463 1463 0 0 0-507.84 92.023c16.41 0.14892 86.725-0.79313 170.01-2.3125 179.13-3.2679 437.25-1.6988 571.17 3.4726 118.32 4.569 285.82 12.344 290.91 13.502 5.5267 1.2585 18.904 1.6827 24.434 1.123a1463 1463 0 0 0-548.68-107.81zm790.91 1022.1c-154.17 0-434.39 1.9201-622.73 4.2676-262.55 3.2726-465.41 3.6842-869.7 1.7656-539.03-2.5579-683.23-2.388-695.56 1.0293a1463 1463 0 0 0-16.244 62.973c0.84521-0.4294 2.0432-1.3912 3.7109-2.9004 11.951-10.815 24.999-3.9057 25.82 13.672 0.42363 9.072-0.6164 10.164-14.695 15.412-8.3333 3.1063-17.689 8.1441-20.791 11.195-2.6428 2.5999-7.1731 15.68-11.854 32.359a1463 1463 0 0 0-15.922 98.117l73.131 0.4258c41.489 0.2413 265.66 1.3974 498.16 2.5684 623.81 3.1418 2313.7-1.3863 2321.5-6.2207 0.3628-0.2243 0.6668-0.6588 0.9257-1.25a1463 1463 0 0 0-28.613-146.39c-0.9144 4.7602-2.1482 17.062-3.043 31.08-2.2577 35.37-6.3905 45.02-22.076 51.557-13.117 5.4665-29.95 6.8821-31.422 2.6426-0.659-1.8982 5.6756-11.304 14.076-20.904 16.474-18.826 21.327-31.058 21.354-53.824 0.018-15.537 6.0395-30.601 13.356-33.408 1.0378-0.3983 1.7686-0.956 2.1914-1.9356a1463 1463 0 0 0-15.646-51.197c-26.837-5.6821-315.75-11.035-605.95-11.035zm32.492 47.588c5.2767 0.013 12.095 1.2162 24.434 3.6191 14.524 2.8287 35.891 7.9454 47.482 11.371 18.768 5.5467 25.901 6.0104 65.152 4.2344l44.076-1.9941 18.303 8.8261c19.502 9.4058 53.562 38.722 60.439 52.022 2.4304 4.6998 3.107 9.7124 1.6328 12.098-4.4151 7.1438-40.606 1.4916-95.15-14.859-59.197-17.746-72.412-18.712-127.36-9.3184-19.34 3.3064-77.09 16.165-128.33 28.574-95.971 23.24-140.1 32.559-179.53 37.906-68.211 9.251-117.21 4.7876-151.62-13.807-17.009-9.1915-23.151-17.717-17.59-24.418 5.5602-6.6995 26.086-3.5338 55.576 8.5723 22.487 9.2312 26.657 9.9413 57.576 9.7988 36.206-0.1667 39.108-0.9297 135.91-35.725 21.419-7.6987 57.415-18.731 79.99-24.518 43.663-11.192 63.374-20.486 74.035-34.906 3.6244-4.9023 12.533-11.183 19.797-13.957 6.1706-2.3567 9.9049-3.5327 15.182-3.5195zm-666.17 3.1484c106.76-0.1497 224.75 1.3092 234.43 3.8457 20.962 5.4938 3.851 11.134-53.787 17.73-59.554 6.816-68.516 7.4794-212.12 15.672-238.12 13.584-320.33 24.208-365.97 47.295l-18.881 9.5508-68.182-2.6426c-37.5-1.4533-94.772-2.6768-127.27-2.7188-54.569-0.07-60.285 0.4429-74.689 6.6934-18.88 8.1927-56.535 14.079-139.79 21.856-112.32 10.49-166.45 11.391-179.65 2.9922-3.4916-2.2213-2.1098-4.898 7.0156-13.594 15.377-14.653 14.887-19.539-1.9551-19.539-15.698 0-43.292 8.1263-85.166 25.076-16.667 6.7465-39.757 14.773-51.311 17.838-11.554 3.0646-26.213 5.5723-32.576 5.5723-14.397 0-24.968-9.1692-22.02-19.096 8.5954-28.934 56.487-63.161 106.52-76.125 30.61-7.9319 52.207-6.2053 111.94 8.9551 33.893 8.6025 64.31 14.411 81.391 15.541 24.647 1.6307 29.461 1.0123 50-6.42 48.625-17.596 62.776-20.326 106.06-20.473 43.101-0.1458 57.371 1.3952 150 16.203 77.731 12.426 107.54 11.58 142.64-4.0547 66.964-29.828 134.48-41.044 289.18-48.037 30.14-1.3624 90.148-2.0312 154.2-2.1211zm1136.5 5.6485c7.1947 0.077 14.122 2.1342 20.715 6.2089 11.497 7.1059 28.02 30.575 28.02 39.799 0 5.146-1.567 5.5351-14.887 3.7031-18.394-2.5298-23.053-0.2304-49.146 24.258-24.898 23.366-44.623 37.094-63.744 44.359-9.7674 3.7113-22.084 5.4978-36.648 5.3164-25.8-0.3215-38.654-3.5332-45.812-11.443-4.7104-5.2049-4.7549-6.1904-0.4746-10.471 2.599-2.5989 11.185-5.5612 19.082-6.582 32.125-4.1526 36.446-5.1511 45.129-10.432 4.9779-3.0274 14.362-13.513 20.854-23.303 27.038-40.778 53.411-61.666 76.914-61.414zm-2419.5 16.77c15.605 0.5614 49.567 17.207 58.217 30.408 4.9112 7.4954 4.8547 8.0461-1.3379 13.06-8.8986 7.2057-33.201 11.51-102.65 18.18-32.654 3.1364-60.144 6.476-61.088 7.42-3.4353 3.4352 2.2765 5.3052 25.553 8.3652 28.471 3.743 34.908 6.3776 26.498 10.846-7.5514 4.0121-59.056 14.601-107.08 22.014-89.667 13.842-149.89 1.047-73.781-15.674 31.834-6.9934 63.399-17.034 72.861-23.178 5.6332-3.6576 6.548-6.2514 5.0391-14.295-1.6814-8.9628-1.0035-10.121 7.7207-13.162 5.2609-1.834 21.403-4.8294 35.871-6.6563 85.234-10.763 103.58-15.52 103.58-26.857 0-3.0864 1.8388-7.1374 4.0879-9.0039 1.3534-1.1232 3.6141-1.5708 6.5039-1.4668zm911.67 550.14c-204.18 0.045-391.03 0.8178-622.26 2.332-322.5 2.1119-592.65 4.7099-600.33 5.7734l-11.85 1.6407a1463 1463 0 0 0 5.4277 44.711l0.94726 5.582c1.0642 6.2664 2.147 12.438 3.2461 18.531a1463 1463 0 0 0 26.73 119.09c0.4501 1.6049 0.89784 3.2186 1.3516 4.8028l6.0801 21.232a1463 1463 0 0 0 1.3027 3.9199l0.23047-20.606c0.12986-11.667-1.385-31.867-3.3672-44.889l-3.6035-23.678 16.799-15.717c11.978-11.206 18.3-20.066 22.031-30.869 6.7354-19.501 8.5866-23.081 12.264-23.719 11.617-2.016 15.68 76.307 6.4121 123.61-6.0483 30.869-21.503 81.611-27.941 91.742-1.3039 2.0518-2.0894 3.7973-2.2324 6.0918a1463 1463 0 0 0 14.746 44.381l3.5742 9.2793 48.182-1.4493c61.375-1.8469 867.86-0.091 1367.9 2.9785 210.83 1.2942 397.85 2.1904 415.6 1.9922l32.262-0.3613 21.553-14.734c11.854-8.1043 39.399-31.287 61.211-51.516 85.49-79.287 105.29-95.172 145.96-117.1 31.448-16.957 55.74-24.134 88.574-26.168 35.402-2.193 64.657 3.9159 98.486 20.566 36.201 17.818 72.592 54.914 114.7 116.92 17.237 25.384 36.453 51.914 42.701 58.955l11.359 12.801 120.92-0.7032c118.5-0.6888 151.7-1.6934 160.29-6.4472a1463 1463 0 0 0 26.478-72.539c1.4232-6.5064 1.0398-10.061-0.4258-14.191-4.6964-13.236-4.5048-14.023 7.7911-31.898 3.9509-5.7438 8.2064-13.39 11.354-20.133a1463 1463 0 0 0 20.828-81.564c2.8948-14.192 4.7949-25.006 4.3672-26.289-0.5773-1.7317-8.2517 18.787-17.055 45.596-13.036 39.699-19.622 54.543-35.498 80.008-25.912 41.562-41.835 60.254-51.33 60.254-11.846 0-9.187-7.682 15.166-43.805 26.254-38.943 45.079-75.798 60.434-118.32 15.248-42.223 20.359-51.558 28.088-51.312 2.5081 0.08 4.1372-0.4164 5.4433-2.5957a1463 1463 0 0 0 7.7149-51.045v-1.6679l-87.121-1.9512c-47.917-1.0731-430.08-3.5443-849.24-5.4922-300.55-1.3966-522.05-2.0803-726.22-2.0351zm403.82 30.363c73.742 0.2892 140.73 16.233 155.07 38.121 4.281 6.5336 4.1663 7.5838-1.4453 13.195-4.8347 4.8346-12.373 6.6418-36.418 8.7304-63.045 5.4762-144.87 31.777-193.86 62.312-36.225 22.578-42.439 36.484-24.551 54.94l9.7246 10.033-6.5683 6.5683c-11.064 11.064-42.015 14.309-167.43 17.553-64.167 1.6595-141.89 4.41-172.73 6.1133-30.833 1.7032-82.872 3.0797-115.64 3.0585-73.627-0.049-92.632 3.309-145.44 25.692-47.951 20.326-63.937 23.543-69.092 13.91-4.784-8.939 3.2122-21.452 29.314-45.869 33.951-31.76 85.537-62.362 117.01-69.416 23.974-5.3727 96.073-9.1126 176.59-9.1602 116.06-0.068 179.23-6.7444 203.04-21.457 7.0624-4.3649 11.289-10.359 14.838-21.043 17.52-52.746 96.102-88.422 204.54-92.857 7.7223-0.3159 15.424-0.4538 23.053-0.4239zm-1061.1 13.207c27.63-0.1005 49.904 6.1779 63.076 18.744 14.497 13.83 9.96 29.296-15.609 53.213-21.35 19.97-64.308 47.151-110.9 70.172-51.554 25.47-90.387 38.484-120.35 40.332-22.176 1.3679-24.139 0.9549-38.094-8-26.616-17.079-36.191-16.141-94.588 9.2637-19.167 8.338-44.953 17.753-57.303 20.922-38.528 9.8873-75.866 6.4826-78.492-7.1563-0.62247-3.2322 9.722-16.392 27.426-34.893 17.573-18.364 31.013-35.442 35.205-44.734 15.166-33.62 16.992-36.186 30.625-43.061 16.746-8.4443 34.123-8.7516 104.66-1.8516 68.708 6.721 77.141 5.3686 96.932-15.543 19.1-20.182 34.235-28.77 74.338-42.182 30.148-10.082 58.697-15.138 83.076-15.226zm246.49 1.3183c9.8931 0 13.733 1.7493 19.885 9.0606 14.513 17.248 17.348 56.305 5.5547 76.545-5.7306 9.8349-3.909 9.3741-38.398 9.6895-21.808 0.1994-29.742 1.5627-39.6 6.8027-16.069 8.5419-30.8 25.118-46.916 52.793-7.1684 12.31-16.459 26.132-20.645 30.715-4.1858 4.5833-9.7409 8.3283-12.346 8.3223-8.3428-0.02-23.983-11.541-29.1-21.436-11.074-21.414 1.0443-39.862 57.697-87.844 20-16.939 48.792-42.914 63.984-57.723 25.536-24.892 28.549-26.926 39.883-26.926zm1217.9 29.873c30.93 0.2063 55.502 7.8298 55.502 18.734 0 8.1153-11.942 14.921-59.09 33.682-79.45 31.613-113.95 50.804-125.99 70.074-4.8571 7.7752-5.7323 12.857-4.3085 25.016 1.4931 12.752 0.6381 16.961-5.2032 25.629-14.767 21.913-49.942 40.923-100.86 54.506-13.333 3.5569-36.516 7.239-51.516 8.1836-25.268 1.5912-27.705 1.2364-33.144-4.8262l-5.8711-6.5429 16.75-15.801c9.6279-9.0828 31.866-24.132 52.305-35.396 44.75-24.664 58.137-35.887 62.68-52.551 7.6536-28.074 9.4814-32.427 18.234-43.441 27.31-34.365 101.96-70.286 158.31-76.174 7.5908-0.7932 15.068-1.1394 22.205-1.0918zm562.36 19.248c6.1437-0.079 12.898 0.3318 20.606 1.1602 22.636 2.4327 25.572 3.4439 25.572 8.8086 0 4.7702-9.0919 10.578-42.697 27.273-23.483 11.667-51.437 27.881-62.121 36.031-10.684 8.1504-24.878 17.324-31.545 20.387-22.583 10.376-31.348 4.4307-21.213-14.389 7.554-14.027 44.289-50.808 63.207-63.287 16.812-11.09 29.76-15.747 48.191-15.984zm221.46 1.5059 5.539 6.8398c3.9341 4.8584 5.5391 11.903 5.5391 24.314 0 18.404-4.3715 25.9-13.141 22.535-6.8398-2.6246-33.913 6.9909-44.307 15.736-4.8257 4.0605-9.6893 11.779-10.809 17.15-5.7424 27.559-37.337 57.262-80.228 75.424-24.364 10.317-46.056 13.018-69.939 8.709-17.6-3.1754-39.152-14.063-39.152-19.777 0-5.9206 9.6902-10.72 17.514-8.6738 14.462 3.7819 97.574-31.709 120.34-51.389 16.414-14.189 12.754-18.386-13.711-15.728-23.887 2.3989-33.232 0.3012-33.232-7.457 0-6.1885 14.035-13.592 52.871-27.889 13.421-4.9404 42.022-15.915 63.559-24.389zm-537.47 120.89c-2.424-0.012-4.925-0.01-7.5097 0.018-83.744 0.7467-146.46 30.758-171.79 82.205-17.065 34.663-11.967 61.435 16.734 87.891 23.474 21.638 55.467 35.185 94.109 39.852 74.017 8.9385 159.44-27.646 185.74-79.547 21.802-43.024 6.1737-90.245-37.445-113.14-24.444-12.833-43.482-17.095-79.842-17.274zm-1969.7 328.11c-66.591 0-122.61 0.5193-136.38 1.2129a1463 1463 0 0 0 35.227 61.412c0.73412 1.0892 1.4797 2.1897 2.2227 3.2891a1463 1463 0 0 0 76.625 107.15c2.9129 3.8832 5.256 7.13 6.3867 8.9317a1463 1463 0 0 0 1146.3 554.07 1463 1463 0 0 0 1193.9-619.12c7.8072-11.224 15.909-22.984 23.76-34.484a1463 1463 0 0 0 44.223-72.131c-6.6761-1.2787-29.338-1.3485-70.363-0.2383-358.94 9.7133-1123.7 10.117-1605.2 0.8477-521.23-10.034-580.65-10.942-716.74-10.945z" fill="#727a80" stroke-width="3.0303"/> <path transform="matrix(.26458 0 0 .26458 0 -496.75)" d="m2292.7 1049.2c-154.32 0-434.83 0.1824-623.36 0.4043-262.82 0.3095-465.88 0.3494-870.58 0.1679-493.87-0.2215-656.37-0.227-689.87 0.022a1463 1463 0 0 0-22.225 79.358c0.84521-0.4294 2.0432-1.3912 3.7109-2.9004 11.951-10.815 24.999-3.9057 25.82 13.672 0.42363 9.072-0.6164 10.164-14.695 15.412-8.3333 3.1063-17.689 8.1441-20.791 11.195-4.4134 4.3417-11.67 38.112-18.496 69.082a1463 1463 0 0 0-10.49 69.402l68.561 0.3418c41.664 0.2087 266.78 1.1986 500.26 2.2032 610.88 2.6284 2239.5-1.0013 2327.3-5.0293a1463 1463 0 0 0-29.828-156.39c-0.9144 4.7602-2.1482 17.062-3.043 31.08-2.2577 35.37-6.3905 45.02-22.076 51.557-13.117 5.4665-29.95 6.8821-31.422 2.6426-0.659-1.8982 5.6756-11.304 14.076-20.904 16.474-18.826 21.327-31.058 21.354-53.824 0.018-15.537 6.0395-30.601 13.356-33.408 1.0378-0.3983 1.7686-0.956 2.1914-1.9356a1463 1463 0 0 0-22.297-71.207c-55.691-0.4972-325.68-0.9414-597.49-0.9414zm30.691 57.504c5.2767 0.013 12.095 1.2162 24.434 3.6191 14.524 2.8287 35.891 7.9454 47.482 11.371 18.768 5.5467 25.901 6.0104 65.152 4.2344l44.076-1.9941 18.303 8.8261c19.502 9.4058 53.562 38.722 60.439 52.022 2.4304 4.6998 3.107 9.7124 1.6328 12.098-4.4151 7.1438-40.606 1.4916-95.15-14.859-59.197-17.746-72.412-18.712-127.36-9.3184-19.34 3.3064-77.09 16.165-128.33 28.574-95.971 23.24-140.1 32.559-179.53 37.906-68.211 9.251-117.21 4.7876-151.62-13.807-17.009-9.1915-23.151-17.717-17.59-24.418 5.5602-6.6995 26.086-3.5338 55.576 8.5723 22.487 9.2312 26.657 9.9413 57.576 9.7988 36.206-0.1667 39.108-0.9297 135.91-35.725 21.419-7.6987 57.415-18.731 79.99-24.518 43.663-11.192 63.374-20.486 74.035-34.906 3.6244-4.9023 12.533-11.183 19.797-13.957 6.1706-2.3567 9.9049-3.5327 15.182-3.5195zm-666.17 3.1484c106.76-0.1497 224.75 1.3092 234.43 3.8457 20.962 5.4938 3.851 11.134-53.787 17.73-59.554 6.816-68.516 7.4794-212.12 15.672-238.12 13.584-320.33 24.208-365.97 47.295l-18.881 9.5508-68.182-2.6426c-37.5-1.4533-94.772-2.6768-127.27-2.7188-54.569-0.07-60.285 0.4429-74.689 6.6934-18.88 8.1927-56.535 14.079-139.79 21.856-112.32 10.49-166.45 11.391-179.65 2.9922-3.4916-2.2213-2.1098-4.898 7.0156-13.594 15.377-14.653 14.887-19.539-1.9551-19.539-15.698 0-43.292 8.1263-85.166 25.076-16.667 6.7465-39.757 14.773-51.311 17.838-11.554 3.0646-26.213 5.5723-32.576 5.5723-14.397 0-24.968-9.1692-22.02-19.096 8.5954-28.934 56.487-63.161 106.52-76.125 30.61-7.9319 52.207-6.2053 111.94 8.9551 33.893 8.6025 64.31 14.411 81.391 15.541 24.647 1.6307 29.461 1.0123 50-6.42 48.625-17.596 62.776-20.326 106.06-20.473 43.101-0.1458 57.371 1.3952 150 16.203 77.731 12.426 107.54 11.58 142.64-4.0547 66.964-29.828 134.48-41.044 289.18-48.037 30.14-1.3624 90.148-2.0312 154.2-2.1211zm1136.5 5.6485c7.1947 0.077 14.122 2.1342 20.715 6.2089 11.497 7.1059 28.02 30.575 28.02 39.799 0 5.146-1.567 5.5351-14.887 3.7031-18.394-2.5298-23.053-0.2304-49.146 24.258-24.898 23.366-44.623 37.094-63.744 44.359-9.7674 3.7113-22.084 5.4978-36.648 5.3164-25.8-0.3215-38.654-3.5332-45.812-11.443-4.7104-5.2049-4.7549-6.1904-0.4746-10.471 2.599-2.5989 11.185-5.5612 19.082-6.582 32.125-4.1526 36.446-5.1511 45.129-10.432 4.9779-3.0274 14.362-13.513 20.854-23.303 27.038-40.778 53.411-61.666 76.914-61.414zm-2419.5 16.77c15.605 0.5614 49.567 17.207 58.217 30.408 4.9112 7.4954 4.8547 8.0461-1.3379 13.06-8.8986 7.2057-33.201 11.51-102.65 18.18-32.654 3.1364-60.144 6.476-61.088 7.42-3.4353 3.4352 2.2765 5.3052 25.553 8.3652 28.471 3.743 34.908 6.3776 26.498 10.846-7.5514 4.0121-59.056 14.601-107.08 22.014-89.667 13.842-149.89 1.047-73.781-15.674 31.834-6.9934 63.399-17.034 72.861-23.178 5.6332-3.6576 6.548-6.2514 5.0391-14.295-1.6814-8.9628-1.0035-10.121 7.7207-13.162 5.2609-1.834 21.403-4.8294 35.871-6.6563 85.234-10.763 103.58-15.52 103.58-26.857 0-3.0864 1.8388-7.1374 4.0879-9.0039 1.3534-1.1232 3.6141-1.5708 6.5039-1.4668zm911.12 536.89c-204.7 0.045-392.04 0.8178-623.87 2.332-323.33 2.1119-594.18 4.7099-601.88 5.7734l-9.7812 1.3516a1463 1463 0 0 0 7.2949 60.084l0.72461 3.748c1.0642 6.2664 2.147 12.438 3.2461 18.531a1463 1463 0 0 0 26.73 119.09c0.4501 1.6049 0.89784 3.2186 1.3516 4.8028l6.0801 21.232a1463 1463 0 0 0 1.3027 3.9199l0.23047-20.606c0.12986-11.667-1.385-31.867-3.3672-44.889l-3.6035-23.678 16.799-15.717c11.978-11.206 18.3-20.066 22.031-30.869 6.7354-19.501 8.5866-23.081 12.264-23.719 11.617-2.016 15.68 76.307 6.4121 123.61-6.0483 30.869-21.503 81.611-27.941 91.742-1.5621 2.4581-2.1452 4.3901-1.8047 7.3809a1463 1463 0 0 0 21.988 63.771l45.787-0.789c61.287-1.1526 866.67-0.053 1366 1.707 210.54 0.7419 397.3 1.2562 415.02 1.1426l32.219-0.207 29.422-21.293c11.633-8.419 42.228-31.994 64.039-52.223 85.49-79.287 100.34-90.93 141-112.86 31.448-16.957 47.963-24.134 80.797-26.168 35.402-2.193 63.948 3.2089 97.777 19.859 36.201 17.818 69.059 51.381 111.17 113.39 17.237 25.384 34.973 51.97 41.285 58.953l18.244 20.184 120.76-0.4043c128.36-0.4284 147.32-3.4473 157.79-5.2402a1463 1463 0 0 0 30.754-84.256c1.4232-6.5064 1.0398-10.061-0.4258-14.191-4.6964-13.236-4.5048-14.023 7.7911-31.898 3.9509-5.7438 8.2064-13.39 11.354-20.133a1463 1463 0 0 0 20.828-81.564c2.8948-14.192 4.7949-25.006 4.3672-26.289-0.5773-1.7317-8.2517 18.787-17.055 45.596-13.036 39.699-19.622 54.543-35.498 80.008-25.912 41.562-41.835 60.254-51.33 60.254-11.846 0-9.187-7.682 15.166-43.805 26.254-38.943 45.079-75.798 60.434-118.32 15.248-42.223 20.359-51.558 28.088-51.312 2.5081 0.08 4.1372-0.4164 5.4433-2.5957a1463 1463 0 0 0 9.9746-65.996l-85.855-1.918c-48.041-1.0732-431.19-3.5443-851.44-5.4922-301.32-1.3966-523.4-2.0803-728.1-2.0351zm404.37 43.613c73.742 0.2892 140.73 16.233 155.07 38.121 4.281 6.5336 4.1663 7.5838-1.4453 13.195-4.8347 4.8346-12.373 6.6418-36.418 8.7304-63.045 5.4762-144.87 31.777-193.86 62.312-36.225 22.578-42.439 36.484-24.551 54.94l9.7246 10.033-6.5683 6.5683c-11.064 11.064-42.015 14.309-167.43 17.553-64.167 1.6595-141.89 4.41-172.73 6.1133-30.833 1.7032-82.872 3.0797-115.64 3.0585-73.627-0.049-92.632 3.309-145.44 25.692-47.951 20.326-63.937 23.543-69.092 13.91-4.784-8.939 3.2122-21.452 29.314-45.869 33.951-31.76 85.537-62.362 117.01-69.416 23.974-5.3727 96.073-9.1126 176.59-9.1602 116.06-0.068 179.23-6.7444 203.04-21.457 7.0624-4.3649 11.289-10.359 14.838-21.043 17.52-52.746 96.102-88.422 204.54-92.857 7.7223-0.3159 15.424-0.4538 23.053-0.4239zm-1061.1 13.207c27.63-0.1005 49.904 6.1779 63.076 18.744 14.497 13.83 9.96 29.296-15.609 53.213-21.35 19.97-64.308 47.151-110.9 70.172-51.554 25.47-90.387 38.484-120.35 40.332-22.176 1.3679-24.139 0.9549-38.094-8-26.616-17.079-36.191-16.141-94.588 9.2637-19.167 8.338-44.953 17.753-57.303 20.922-38.528 9.8873-75.866 6.4826-78.492-7.1563-0.62247-3.2322 9.722-16.392 27.426-34.893 17.573-18.364 31.013-35.442 35.205-44.734 15.166-33.62 16.992-36.186 30.625-43.061 16.746-8.4443 34.123-8.7516 104.66-1.8516 68.708 6.721 77.141 5.3686 96.932-15.543 19.1-20.182 34.235-28.77 74.338-42.182 30.148-10.082 58.697-15.138 83.076-15.226zm246.49 1.3183c9.8931 0 13.733 1.7493 19.885 9.0606 14.513 17.248 17.348 56.305 5.5547 76.545-5.7306 9.8349-3.909 9.3741-38.398 9.6895-21.808 0.1994-29.742 1.5627-39.6 6.8027-16.069 8.5419-30.8 25.118-46.916 52.793-7.1684 12.31-16.459 26.132-20.645 30.715-4.1858 4.5833-9.7409 8.3283-12.346 8.3223-8.3428-0.02-23.983-11.541-29.1-21.436-11.074-21.414 1.0443-39.862 57.697-87.844 20-16.939 48.792-42.914 63.984-57.723 25.536-24.892 28.549-26.926 39.883-26.926zm1217.9 29.873c30.93 0.2063 55.502 7.8298 55.502 18.734 0 8.1153-11.942 14.921-59.09 33.682-79.45 31.613-113.95 50.804-125.99 70.074-4.8571 7.7752-5.7323 12.857-4.3085 25.016 1.4931 12.752 0.6381 16.961-5.2032 25.629-14.767 21.913-49.942 40.923-100.86 54.506-13.333 3.5569-36.516 7.239-51.516 8.1836-25.268 1.5912-27.705 1.2364-33.144-4.8262l-5.8711-6.5429 16.75-15.801c9.6279-9.0828 31.866-24.132 52.305-35.396 44.75-24.664 58.137-35.887 62.68-52.551 7.6536-28.074 9.4814-32.427 18.234-43.441 27.31-34.365 101.96-70.286 158.31-76.174 7.5908-0.7932 15.068-1.1394 22.205-1.0918zm562.36 19.248c6.1437-0.079 12.898 0.3318 20.606 1.1602 22.636 2.4327 25.572 3.4439 25.572 8.8086 0 4.7702-9.0919 10.578-42.697 27.273-23.483 11.667-51.437 27.881-62.121 36.031-10.684 8.1504-24.878 17.324-31.545 20.387-22.583 10.376-31.348 4.4307-21.213-14.389 7.554-14.027 44.289-50.808 63.207-63.287 16.812-11.09 29.76-15.747 48.191-15.984zm221.46 1.5059 5.539 6.8398c3.9341 4.8584 5.5391 11.903 5.5391 24.314 0 18.404-4.3715 25.9-13.141 22.535-6.8398-2.6246-33.913 6.9909-44.307 15.736-4.8257 4.0605-9.6893 11.779-10.809 17.15-5.7424 27.559-37.337 57.262-80.228 75.424-24.364 10.317-46.056 13.018-69.939 8.709-17.6-3.1754-39.152-14.063-39.152-19.777 0-5.9206 9.6902-10.72 17.514-8.6738 14.462 3.7819 97.574-31.709 120.34-51.389 16.414-14.189 12.754-18.386-13.711-15.728-23.887 2.3989-33.232 0.3012-33.232-7.457 0-6.1885 14.035-13.592 52.871-27.889 13.421-4.9404 42.022-15.915 63.559-24.389zm-536.22 113.89c-2.5221-0.013-5.1231-0.01-7.8125 0.018-87.133 0.7965-152.39 32.81-178.74 87.688-17.755 36.975-12.452 65.53 17.41 93.75 24.424 23.081 57.712 37.532 97.918 42.51 77.012 9.5345 165.89-29.49 193.26-84.852 22.684-45.893 6.4229-96.263-38.961-120.69-25.434-13.689-45.241-18.233-83.072-18.424zm-1864 523.81c-66.874-0.044-110.86 0.5305-115.53 1.8203a1463 1463 0 0 0 486.69 390.19c0.30269 0.022 0.55373 0.016 0.72461-0.035 26.091-7.8421 287.86-17.7 554.55-20.883 225.77-2.6948 646.45 5.0709 732.84 13.527l29.025 2.8399a1463 1463 0 0 0 469.14-380.45c-7.917-0.1742-42.13 0.5409-82.522 1.7578-200.62 6.0442-594.02 9.7158-851.52 7.9473-252.79-1.7362-340.85-3.0602-746.97-11.227-169.37-3.4058-358.45-5.4102-476.43-5.4882z" fill="#9b6d45" stroke-width="3.0303"/> <path d="m214.46 241.79c-33.743-17.809-67.049-42.646-93.862-69.992-11.444-11.672-25.191-27.43-25.191-28.876 0-1.0261 85.044-0.53309 156.75 0.90871 107.45 2.1607 130.75 2.5108 197.64 2.9702 68.13 0.46792 172.22-0.50351 225.3-2.1027 12.127-0.36535 22.161-0.56066 22.298-0.43404 0.57065 0.52764-13.056 16.041-23.496 26.751-26.602 27.287-59.504 52.042-92.858 69.863l-7.6291 4.0763-8.2876-0.81126c-22.857-2.2374-134.16-4.2919-193.9-3.5789-70.562 0.84221-139.82 3.4502-146.72 5.5251-0.66146 0.19881-5.176-1.7356-10.032-4.2988z" fill="#776857" stroke-width=".80177"/> <path transform="matrix(.26458 0 0 .26458 0 -496.75)" d="m1487.3 37.482a1463 1463 0 0 0-1450.2 1462.5 1463 1463 0 0 0 1456.9 1462.7c-292.64-56.797-559-233.54-751.99-499.27-194.96-268.43-302.27-610.04-302.64-963.39 0.13947-352.43 106.66-693.3 300.52-961.62 191.65-265.27 456.3-442.5 747.5-500.9z" fill-opacity=".31373" style="paint-order:normal"/> </g> </svg>